<?xml version="1.0" standalone="no"?>
<!DOCTYPE svg PUBLIC "-//W3C//DTD SVG 1.1//EN" "http://www.w3.org/Graphics/SVG/1.1/DTD/svg11.dtd" >
<svg xmlns="http://www.w3.org/2000/svg">
<metadata>
Created by FontForge 20120731 at Fri Dec  2 18:20:38 2016
 By admin
</metadata>
<defs>
<font id="iconfont" horiz-adv-x="1024" >
  <font-face 
    font-family="iconfont"
    font-weight="500"
    font-stretch="normal"
    units-per-em="1024"
    panose-1="2 0 6 3 0 0 0 0 0 0"
    ascent="896"
    descent="-128"
    x-height="792"
    bbox="0 -147 1024 895"
    underline-thickness="0"
    underline-position="0"
    unicode-range="U+0078-E920"
  />
<missing-glyph 
 />
    <glyph glyph-name=".notdef" 
 />
    <glyph glyph-name=".notdef" 
 />
    <glyph glyph-name=".null" horiz-adv-x="0" 
 />
    <glyph glyph-name="nonmarkingreturn" horiz-adv-x="341" 
 />
    <glyph glyph-name="x" unicode="x" horiz-adv-x="1001" 
d="M281 543q-27 -1 -53 -1h-83q-18 0 -36.5 -6t-32.5 -18.5t-23 -32t-9 -45.5v-76h912v41q0 16 -0.5 30t-0.5 18q0 13 -5 29t-17 29.5t-31.5 22.5t-49.5 9h-133v-97h-438v97zM955 310v-52q0 -23 0.5 -52t0.5 -58t-10.5 -47.5t-26 -30t-33 -16t-31.5 -4.5q-14 -1 -29.5 -0.5
t-29.5 0.5h-32l-45 128h-439l-44 -128h-29h-34q-20 0 -45 1q-25 0 -41 9.5t-25.5 23t-13.5 29.5t-4 30v167h911zM163 247q-12 0 -21 -8.5t-9 -21.5t9 -21.5t21 -8.5q13 0 22 8.5t9 21.5t-9 21.5t-22 8.5zM316 123q-8 -26 -14 -48q-5 -19 -10.5 -37t-7.5 -25t-3 -15t1 -14.5
t9.5 -10.5t21.5 -4h37h67h81h80h64h36q23 0 34 12t2 38q-5 13 -9.5 30.5t-9.5 34.5q-5 19 -11 39h-368zM336 498v228q0 11 2.5 23t10 21.5t20.5 15.5t34 6h188q31 0 51.5 -14.5t20.5 -52.5v-227h-327z" />
    <glyph glyph-name="44" unicode="&#xe603;" 
d="M1018 -31v0q0 -13 -9 -22.5t-22 -9.5h-235q13 3 22 14t9 24v1v0q0 5 -0.5 15t-6.5 37.5t-15.5 51t-31 49.5t-51.5 41q-15 8 -26.5 12.5t-16.5 5.5t-13 2.5t-13 2.5v62q-3 2 -7 6.5t-12.5 24.5t-12.5 46q-10 -3 -15 7.5t-6 24.5q0 2 -1 11t-1 15t0.5 13.5t3 11t8.5 1.5
q-7 52 -5 68q3 39 37 69t85 33q58 -3 88 -32t34 -70q1 -15 -6 -68q5 2 8 -1.5t3.5 -11t0.5 -13.5t-1 -15t-1 -11q-1 -14 -6 -24.5t-16 -7.5q-3 -26 -11 -45t-14 -26l-7 -6l1 -62q16 -8 81 -35q31 -13 50.5 -16.5t46.5 -16.5q24 -12 41 -33t25 -40t12.5 -41t5 -30t0.5 -12v0z
M546 180q35 -15 56 -18.5t51 -18.5q26 -13 45 -35t27.5 -45t13.5 -44t6 -34v-13v0v0q0 -15 -10 -25t-24 -10h-670q-14 0 -24 10t-10 25v0v0q0 5 0.5 13.5t5.5 33t13.5 45t27.5 44t45 35.5q29 15 50.5 18t56.5 17q32 13 54.5 23t28.5 14l6 3l1 68l-8 8t-14.5 26.5t-12.5 50.5
q-12 -3 -17.5 8.5t-6.5 26.5q0 2 -1 12t-1 16.5t0.5 15t3.5 12t9 2.5q-8 56 -6 75q4 42 41.5 75t93.5 36q64 -2 96.5 -34.5t36.5 -76.5q2 -17 -6 -75q6 1 9.5 -2.5t4 -12t0 -15t-1.5 -16.5t-1 -12q-1 -15 -6.5 -26.5t-16.5 -8.5q-4 -28 -13 -49.5t-16 -27.5l-7 -7l1 -68
q0 -3 89 -39v0z" />
    <glyph glyph-name="renqun" unicode="&#xe609;" 
d="M716 159q-42 36 -93 55q-10 4 -20 7q32 16 57 43q60 65 60 156t-60 155.5t-145.5 64.5t-145.5 -64.5t-60 -155.5t60 -156q25 -26 56 -43q-11 -3 -21 -7q-51 -19 -93 -55q-43 -36 -72 -84q-29 -50 -43 -106l32 -9q24 104 103 171q38 33 84 50q48 18 98.5 18t98.5 -18
q46 -17 84 -50q79 -66 103 -170l31 8q-13 57 -42 106q-30 48 -72 84zM341 419.5q0 76.5 51 131t122.5 54.5t122 -54.5t50.5 -131t-50.5 -130.5t-122 -54t-122.5 54t-51 130.5zM982 113q-20 33 -49 58t-64 38l-14 4q22 12 39 30q42 44 42 106.5t-41.5 107t-99.5 44.5
q-37 0 -68 -19q5 -11 8 -23q28 18 60 18q49 0 83.5 -37.5t34.5 -90t-34.5 -89.5t-83.5 -37q-11 0 -22 2v-0.5v-1.5q0 -13 -3 -26q12 1 24 1q35 0 67 -12t58 -34q54 -46 71 -117l21 6q-9 38 -29 72zM258 197q-3 13 -3 26v1.5v0.5q-11 -2 -22 -2q-49 0 -83.5 37t-34.5 89.5
t34.5 90t83.5 37.5q32 0 60 -18q3 12 8 23q-31 19 -68 19q-58 0 -99.5 -44.5t-41.5 -107t42 -106.5q17 -18 39 -30l-14 -4q-35 -13 -64 -38t-49 -58q-20 -34 -29 -72l21 -6q17 71 71 117q26 22 58 34t67 12q12 0 24 -1z" />
    <glyph glyph-name="shijian" unicode="&#xe613;" 
d="M514.5 -81q-93.5 0 -178.5 36.5t-146.5 98t-98 146.5t-36.5 178.5t36.5 178.5t98 146.5t146.5 98t178.5 36.5t178.5 -36.5t146.5 -98t98 -146.5t36.5 -178.5t-36.5 -178.5t-98 -146.5t-146.5 -98t-178.5 -36.5zM514.5 806q-115.5 0 -214 -57.5t-156 -156t-57.5 -214
t57.5 -214t156 -156t214 -57.5t214 57.5t156 156t57.5 214t-57.5 214t-156 156t-214 57.5zM752 384h-256v240q0 7 -4.5 11.5t-11.5 4.5t-11.5 -4.5t-4.5 -11.5v-256q0 -7 4.5 -11.5t11.5 -4.5h272q7 0 11.5 4.5t4.5 11.5t-4.5 11.5t-11.5 4.5z" />
    <glyph glyph-name="ticket2" unicode="&#xe626;" 
d="M901 652l-31 29q-6 2 -16 4t-35.5 -2.5t-42.5 -22.5l-153 -155l-429 62l-54 -49l319 -185l-117 -114l-195 -13l-38 -14l200 -111l107 -201l15 38l12 187q329 335 458 466q14 17 14 35t-7 32l-7 14v0zM575 216l159 -298l42 48l-43 394zM575 216z" />
    <glyph glyph-name="jieduanxinxi" unicode="&#xe6b9;" 
d="M870 -147h-718q-13 0 -22.5 9.5t-9.5 22.5v296q0 13 9.5 22.5t22.5 9.5h203v229q0 14 9.5 23.5t23.5 9.5h157v240q0 14 9.5 23.5t22.5 9.5h293q14 0 23.5 -9.5t9.5 -23.5v-830q0 -13 -9.5 -22.5t-23.5 -9.5v0zM184 -83h654v766h-228v-241q0 -13 -9.5 -22.5t-23.5 -9.5
h-157v-229q0 -14 -9.5 -23t-22.5 -9h-204v-232v0zM184 -83z" />
    <glyph glyph-name="peixun" unicode="&#xe602;" 
d="M316 471q10 -30 30 -42t40 0t30 42q13 7 15 23q3 22 -9 22q-1 24 -15 39.5t-40.5 15.5t-40.5 -14.5t-16 -40.5q-12 0 -9 -22q2 -16 15 -23zM450 107v22q19 0 31.5 13t12.5 31v2l172 171q8 8 -0.5 16.5t-16.5 0.5l-155 -155v146q0 24 -15.5 42.5t-39.5 23.5l-24 5l-49 -98
l-49 98l-24 -5q-24 -5 -39.5 -23.5t-15.5 -42.5v-181q0 -18 13 -31t31 -13v-22h168zM98 259q0 -50 36 -86t87 -36h1q-10 17 -10 36v17q-26 3 -44 23t-18 46v333q0 29 21 49.5t50 20.5h583q29 0 50 -20.5t21 -49.5v-333q0 -29 -21 -49.5t-50 -20.5h-258l-26 -26
q-2 -13 -11 -26h295q51 0 87 36t36 86v333q0 50 -36 86t-87 36h-583q-51 0 -87 -36t-36 -86v-333zM270 64h-92q-33 0 -56.5 -23.5t-23.5 -56.5v-105h252v105q0 33 -23.5 56.5t-56.5 23.5zM560 64h-92q-33 0 -56.5 -23.5t-23.5 -56.5v-105h252v105q0 33 -23.5 56.5
t-56.5 23.5zM850 64h-92q-33 0 -56.5 -23.5t-23.5 -56.5v-105h252v105q0 33 -23.5 56.5t-56.5 23.5z" />
    <glyph glyph-name="xiaoxi" unicode="&#xe615;" 
d="M886 594h-681v-466q0 -37 26.5 -63.5t64.5 -26.5h65v-174l150 174h375q37 0 63.5 26.5t26.5 63.5v375q0 38 -26.5 64.5t-63.5 26.5zM948 128q0 -25 -18.5 -43.5t-43.5 -18.5h-387l-110 -126v126h-93q-26 0 -44 18.5t-18 43.5v438h652q25 0 43.5 -18.5t18.5 -44.5v-375z
M392.5 361q-18.5 0 -31.5 -13t-13 -31.5t13 -31.5t31.5 -13t31.5 13t13 31.5t-13 31.5t-31.5 13zM590.5 361q-18.5 0 -31.5 -13t-13 -31.5t13 -31.5t31.5 -13t31.5 13t13 31.5t-13 31.5t-31.5 13zM789.5 361q-18.5 0 -31.5 -13t-13 -31.5t13 -31.5t31.5 -13t31.5 13t13 31.5
t-13 31.5t-31.5 13zM82 219v474h621q23 0 41.5 -16t18.5 -28h28q0 25 -27 48.5t-61 23.5h-650v-502q0 -36 26 -61.5t62 -25.5v28q-25 0 -42 17.5t-17 41.5z" />
    <glyph glyph-name="shijian1" unicode="&#xe6a9;" 
d="M510.5 -145q-90.5 0 -173.5 35.5t-142.5 95t-95 142.5t-35.5 173.5t35.5 173.5t95 142.5t142.5 95t173.5 35.5t173.5 -35.5t142.5 -95t95 -142.5t35.5 -173.5t-35.5 -173.5t-95 -142.5t-142.5 -95t-173.5 -35.5zM510.5 709q-110.5 0 -204.5 -54.5t-148.5 -148.5
t-54.5 -204.5t54.5 -204.5t148.5 -148.5t204.5 -54.5t204.5 54.5t148.5 148.5t54.5 204.5t-54.5 204.5t-148.5 148.5t-204.5 54.5zM491 263q-8 0 -13.5 5.5t-5.5 13.5v330q0 8 5.5 14t13.5 6t14 -6t6 -14v-330q0 -8 -6 -13.5t-14 -5.5zM763 263h-272q-8 0 -13.5 5.5
t-5.5 13.5t5.5 13.5t13.5 5.5h272q8 0 13.5 -5.5t5.5 -13.5t-5.5 -13.5t-13.5 -5.5z" />
    <glyph glyph-name="dingdan" unicode="&#xe642;" 
d="M827 570h-83v16q0 7 -5.5 12t-13.5 5h-97q-8 31 -32 54q-35 33 -85 33q-48 0 -84 -33q-24 -23 -32 -54h-98q-7 0 -12.5 -5t-5.5 -12v-16h-84q-12 0 -21 -8.5t-9 -20.5v-595q0 -12 9 -20.5t21 -8.5h632q13 0 22 8.5t9 20.5v595q0 12 -9 20.5t-22 8.5v0zM453 632v0
q23 23 58 23t59 -23q14 -13 20 -29h-157q6 17 20 29v0zM316 568v0h391v-55h-391v55v0zM797 -25v0h-571v536h53v-15q0 -8 5.5 -13t12.5 -5h428q8 0 13.5 5t5.5 13v15h53v-536v0zM333 263v0q-13 0 -22 -8.5t-9 -20.5t9 -20.5t22 -8.5t21.5 8.5t8.5 20.5t-8.5 20.5t-21.5 8.5v0
zM333 140v0q-13 0 -22 -8t-9 -20.5t9 -20.5t22 -8t21.5 8t8.5 20.5t-8.5 20.5t-21.5 8v0zM688 375v0h-264q-8 0 -13 -5.5t-5 -12.5t5 -12.5t13 -5.5h264q8 0 13.5 5.5t5.5 12.5t-5.5 12.5t-13.5 5.5v0zM333 386v0q-13 0 -22 -8.5t-9 -20.5t9 -20.5t21.5 -8.5t21.5 8.5
t9 20.5t-9 20.5t-21 8.5v0zM688 129v0h-264q-8 0 -13 -5t-5 -12.5t5 -12.5t13 -5h264q8 0 13.5 5t5.5 12.5t-5.5 12.5t-13.5 5v0zM688 252v0h-264q-8 0 -13 -5.5t-5 -12.5t5 -12t13 -5h264q8 0 13.5 5t5.5 12t-5.5 12.5t-13.5 5.5v0z" />
    <glyph glyph-name="icon01" unicode="&#xe616;" 
d="M512 680q-103 0 -190.5 -51t-138.5 -138.5t-51 -190.5t51 -190.5t138.5 -138.5t190.5 -51t190.5 51t138.5 138.5t51 190.5t-51 190.5t-138.5 138.5t-190.5 51zM512 -33q-90 0 -166.5 45t-121.5 121.5t-45 166.5t45 166.5t121.5 121.5t166.5 45t166.5 -45t121.5 -121.5
t45 -166.5t-45 -166.5t-121.5 -121.5t-166.5 -45zM678 324h-142v190q0 10 -7 17t-17 7t-17 -7t-7 -17v-214q0 -10 7 -17t17 -7h166q10 0 17 7t7 17t-7 17t-17 7z" />
    <glyph glyph-name="shijian2" unicode="&#xe61d;" 
d="M507 75q-93 0 -159 66t-66 159t66 159t159 66t159 -66t66 -159t-66 -159t-159 -66zM507 505q-85 0 -145 -60.5t-60 -144.5t60 -144.5t144.5 -60.5t145 60.5t60.5 145t-60 144.5t-145 60zM476 430h21v-164h-21v164zM476 276h133v-20h-133v20z" />
    <glyph glyph-name="logo6" unicode="&#xe673;" 
d="M1009 -76h-73v49q0 5 -5 5t-5 -5v-49h-91v49q0 5 -5 5t-5 -5v-49h-92v49q0 5 -5 5t-5 -5v-49h-91v49q0 5 -5.5 5t-5.5 -5v-49h-91v49q0 5 -5 5t-5 -5v-49h-92v49q0 5 -5 5t-5 -5v-49h-91v49q0 5 -5 5t-5 -5v-49h-92v49q0 5 -5 5t-5 -5v-49h-185v115h41q5 0 5 5t-5 5h-41
v91h41q5 0 5 5t-5 5h-41v92h41q5 0 5 5t-5 5h-41v91h41q5 0 5 5.5t-5 5.5h-41v91h41q5 0 5 5t-5 5h-41v92h41q5 0 5 5t-5 5h-41v91h41q5 0 5 5t-5 5h-41v92h41q5 0 5 5q0 2 -1.5 3.5t-3.5 1.5h-41v83q0 6 -4 10.5t-10.5 4.5t-11 -4.5t-4.5 -10.5v-935q0 -6 4.5 -10.5
t10.5 -4.5h994q6 0 10.5 4.5t4.5 11t-4.5 11t-10.5 4.5v0zM480 441l141 -165l202 262v-96h51v214l-186 -71l18 -47l75 28l-162 -210l-136 160l-320 -323l36 -36z" />
    <glyph glyph-name="hezuo-copy" unicode="&#xe640;" 
d="M28 327l56 -29q3 -2 7.5 -3.5t15 1.5t16.5 15l139 290q1 2 3 6.5t0 14.5t-11 15l-61 30q-19 10 -32 -12q0 -4 -35.5 -78t-71 -145.5l-35.5 -71.5q-9 -24 9 -33zM943 297l57 27q1 0 2.5 1t6 4.5t6 7.5t3 10.5t-3.5 14.5l-143 288q0 1 -1 2.5l-4 6t-7 6t-9.5 3.5t-12.5 -2
l-61 -30q-2 -1 -4.5 -3t-7 -10t1.5 -18q3 -3 39.5 -76.5t71 -146l34.5 -72.5q1 -2 3.5 -5t11 -8t17.5 0zM164 298l19 40l66 -83q5 1 12.5 2t23.5 -3t22 -16q2 -2 4 -5.5t5 -16t-1 -26.5q9 -6 10 -10q30 7 47 -14q2 -2 5 -4.5t7 -12.5t3 -22q12 -5 14 -12q29 8 43 -9
q2 -2 5 -5.5t7.5 -12.5t3.5 -17l27 -20q26 -2 30 -22l24 -18q2 -1 4.5 -1.5t9 -1t12 1t10 8t5.5 16.5l-91 70q-1 1 -1.5 3t-0.5 6.5t2 7.5t7.5 5.5t15.5 0.5l135 -95q23 -10 36 11q13 19 -6 38l-144 105q0 1 -1 3t-1.5 7t1 8.5t7 6t14.5 2.5l171 -122q25 -9 35 9q14 18 0 37
l-189 138q-1 1 -1 3t-0.5 7.5t2 8.5t7.5 6t16 -1l195 -139q3 -1 8.5 -2t17 2.5t17.5 14.5q1 3 3.5 8t1.5 17.5t-11 21.5l-276 241q-2 1 -5.5 2t-14 2.5t-20.5 0t-21.5 -9.5t-20.5 -22q0 -3 -1 -9t-7 -21t-15.5 -27.5t-29 -24.5t-45.5 -17q-1 0 -3.5 0.5t-9 1.5t-11.5 3
t-12 5.5t-9.5 8.5t-5 12t1.5 16q2 2 5.5 7.5t8 25.5t3.5 43q3 37 28 69h-99l22 45h150q7 4 18.5 9.5t40 14.5t49.5 8q60 -4 77 -13q9 -3 23 -7t45.5 -9.5t47.5 -2.5l134 -279l-21 -48q1 -2 3.5 -5t8 -12.5t8 -19.5t0.5 -24.5t-10 -28.5q-15 -31 -63 -34q6 -33 -18 -51
q-2 -3 -6 -6.5t-19.5 -8.5t-34.5 -3q3 -29 -25 -48q-4 -3 -11 -7t-29 -3t-45 16q-1 -4 -3.5 -9.5t-15 -16t-31.5 -13.5q-30 -5 -47 12q-1 -3 -3.5 -6.5t-10.5 -12t-16.5 -13t-21 -4t-24.5 9.5q-1 1 -3 2.5t-6 7.5t-5.5 12.5t-0.5 15.5t6 19q-1 -3 -4 -6.5t-12 -11.5
t-18.5 -12t-23 -1t-25.5 16q-1 0 -2.5 1.5t-4.5 7t-4.5 12t0.5 16.5t9 21l-4.5 -4.5t-11 -7.5t-17 -7t-20.5 1.5t-23 13.5q-1 1 -2.5 3t-5 8t-5 12.5t0 17.5t7.5 22q-2 -1 -4.5 -4t-11 -8t-17.5 -7t-22 2t-25 15q-2 2 -4 6t-6 17.5t3 30.5l41 57z" />
    <glyph glyph-name="xianxiapeixun" unicode="&#xe7f2;" 
d="M339 455q13 -42 43.5 -42t44.5 42q11 6 13 20q3 19 -8 19q-1 22 -13 35.5t-36 13.5q-47 0 -50 -49q-10 0 -8 -19q2 -14 14 -20zM647 358.5q-7 7.5 -15 0.5l-136 -137v129q0 21 -14 37.5t-35 20.5l-21 5l-43 -87l-44 87l-21 -5q-21 -4 -35 -20.5t-14 -37.5v-160
q0 -16 11.5 -27.5t27.5 -11.5v-19h149v19q16 0 27.5 11.5t11.5 27.5v2l151 151q7 7 0 14.5zM770 669h-516q-44 0 -76 -31.5t-32 -76.5v-294q0 -44 32 -76t76 -32h2q-10 15 -10 32v15q-23 3 -38.5 20.5t-15.5 40.5v294q0 26 18.5 44t43.5 18h516q25 0 43.5 -18t18.5 -44v-294
q0 -25 -18.5 -43.5t-43.5 -18.5h-229l-23 -23q-2 -11 -9 -23h261q44 0 76 32t32 76v294q0 45 -32 76.5t-76 31.5z" />
    <glyph glyph-name="bianhualiang" unicode="&#xe634;" 
d="M422 385q23 -12 35 -12q26 0 52 18l332 308l64 -69l59 203q0 5 -4 11.5t-8 6.5l-210 -47l64 -64l-332 -314q-9 -10 -29 0l-349 186q-19 9 -29 -12q-8 -9 -6 -16.5t12 -12.5l349 -186v0zM422 385zM86 369h100v-452h-100v452zM443 271h101v-354h-101v354zM801 508h100v-591
h-100v591z" />
    <glyph glyph-name="mubiao" unicode="&#xe710;" 
d="M498 582q-5 1 -13.5 3t-35 3.5t-52 -0.5t-60 -12t-63.5 -29q-52 -33 -83 -75l-3 -4t-6 -8.5t-8 -12.5t-9.5 -16.5t-9.5 -20.5t-9 -23.5t-7.5 -26t-5.5 -29.5q-1 -10 -1 -24.5t1.5 -46t12 -64.5t29.5 -59l1 -1q58 -93 155 -124q8 -4 20.5 -7.5t46.5 -7.5t67 -0.5
t77.5 21.5t81.5 51q1 1 3 2q9 8 17.5 16.5t26.5 33t29.5 50.5t19 68t4.5 87q-1 4 -6 31.5t-5 30.5l58 20q7 -54 9 -73q10 -102 -20 -168q-2 -6 -5 -13.5t-14 -28.5t-25 -40.5t-40 -45.5t-57 -47q-127 -76 -256 -49q-6 1 -21.5 5t-47.5 17.5t-63 33t-65 55.5t-56 81
q-5 11 -8.5 19t-13 40.5t-12.5 62t1 74t19 86.5q4 11 7 18t18.5 33.5t32 47t45.5 46.5t62 43q1 0 7 3t14.5 7t22.5 9t29.5 9.5t36 7.5t42 4t48.5 -1t54 -8l-17 -54v0zM498 582zM495 540q-6 2 -15.5 4t-39 2.5t-57 -5t-64 -26t-65.5 -54.5q-6 -7 -14 -18t-22 -44t-19.5 -66.5
t5 -82t41.5 -93.5q0 -1 1 -1q5 -7 12 -14t25 -24t40.5 -28t51.5 -21.5t66 -9.5t75 13q107 37 148 137q4 8 8.5 22t9 44t0.5 56q-5 45 -10 53l-58 -26q7 -28 8 -38q1 -16 -1 -33.5t-9 -42t-25.5 -49.5t-47.5 -45q-8 -5 -15.5 -9t-30.5 -11.5t-45 -9t-53.5 6t-60.5 27.5l-2 1
q-10 8 -20 18t-27 33.5t-24 59t0 76.5v1q1 4 2 7.5t5 14t8.5 19t12.5 21.5t17.5 22t22.5 21t27.5 18t33.5 13t40 6t48 -3l17 58v0zM495 540zM457 420q-3 1 -9.5 1.5t-24 -1t-33.5 -8.5t-34 -25t-29 -45q-2 -7 -3.5 -19.5t-1.5 -34.5t13 -45.5t37 -38.5l1 -1q8 -4 15 -8
t26 -8.5t36 -3.5t39.5 12t42.5 33q30 30 26 92l-62 -14v-5t-2.5 -11.5t-6.5 -16t-13 -15t-21 -11.5q-47 -5 -63 32q-12 32 4 53q16 24 44 26l19 62v0zM457 420zM901 606l46 49l-180 -2l-13 179l-46 -48v0l-121 -131l2 -2l3 -139l-167 -181v0l-13 -14l46 -43l19 20h-1
l163 175l140 6v0h1l121 131v0v0v0zM752 534l-99 -4l-4 99l70 75l4 -99l99 4l-70 -75v0zM752 534z" />
    <glyph glyph-name="caidan-copy" unicode="&#xe600;" 
d="M77 836q-7 0 -11.5 -4.5t-4.5 -11.5v-323q0 -6 4.5 -10.5t11.5 -4.5h323q6 0 11 4.5t5 10.5v323q0 7 -5 11.5t-11 4.5h-323zM628 836q-6 0 -11 -4.5t-5 -11.5v-323q0 -6 5 -10.5t11 -4.5h323q7 0 11.5 4.5t4.5 10.5v323q0 7 -4.5 11.5t-11.5 4.5h-323zM628 874h323
q22 0 38 -15.5t16 -38.5v-323q0 -22 -16 -38t-38 -16h-323q-22 0 -38 16t-16 38v323q0 23 16 38.5t38 15.5v0v0zM77 285q-7 0 -11.5 -4.5t-4.5 -11.5v-323q0 -6 4.5 -10.5t11.5 -4.5h323q6 0 11 4.5t5 10.5v323q0 7 -5 11.5t-11 4.5h-323zM77 323h323q22 0 38 -15.5
t16 -38.5v-323q0 -22 -16 -38t-38 -16h-323q-22 0 -38 16t-16 38v323q0 23 16 38.5t38 15.5v0v0zM628 323h323q22 0 38 -15.5t16 -38.5v-323q0 -22 -16 -38t-38 -16h-323q-22 0 -38 16t-16 38v323q0 23 16 38.5t38 15.5v0v0zM77 874h323q22 0 38 -15.5t16 -38.5v-323
q0 -22 -16 -38t-38 -16h-323q-22 0 -38 16t-16 38v323q0 23 16 38.5t38 15.5v0v0zM77 874z" />
    <glyph glyph-name="gongzuojianbao" unicode="&#xe60f;" 
d="M795 -62h-566q-26 0 -44.5 19t-18.5 45v655q0 26 18.5 44.5t44.5 18.5h566q26 0 44.5 -18.5t18.5 -44.5v-655q0 -26 -18.5 -45t-44.5 -19zM229 684q-11 0 -18.5 -8t-7.5 -19v-655q0 -11 7.5 -19t18.5 -8h566q11 0 18.5 8t7.5 19v655q0 11 -7.5 19t-18.5 8h-566zM696 497
h-206q-6 0 -10 4t-4 9.5t4 9.5t10 4h206q6 0 10 -4t4 -9.5t-4 -9.5t-10 -4zM696 389h-239q-6 0 -10 4t-4 9.5t4 9.5t10 4h239q6 0 10 -4t4 -9.5t-4 -9.5t-10 -4zM696 278h-206q-6 0 -10 4t-4 9.5t4 9.5t10 4h206q6 0 10 -4t4 -9.5t-4 -9.5t-10 -4zM696 188h-239q-6 0 -10 4
t-4 10t4 10t10 4h239q6 0 10 -4t4 -10t-4 -10t-10 -4zM696 75h-380q-6 0 -10 4t-4 9.5t4 9.5t10 4h380q6 0 10 -4t4 -9.5t-4 -9.5t-10 -4zM348.5 366q-30.5 0 -52 -21.5t-21.5 -52t21.5 -52t52 -21.5t52 21.5t21.5 52t-21.5 52t-52 21.5zM396 320l-48 -64q-2 -3 -5 -3h-1
q-3 0 -5 2l-41 38q-5 6 0 11.5t11 -0.5l34 -32l43 57q4 6 10.5 1.5t1.5 -10.5v0zM348.5 579q-30.5 0 -52 -21.5t-21.5 -52t21.5 -52t52 -21.5t52 21.5t21.5 52t-21.5 52t-52 21.5zM396 533l-48 -64q-2 -3 -5 -3h-0.5h-0.5q-3 0 -5 2l-41 38q-5 5 0 10.5t11 0.5l34 -32l43 57
q5 6 11 1.5t1 -10.5v0zM574 777q-5 24 -24 39.5t-44 15.5t-44 -15.5t-24 -39.5h-69v-109h276v109h-71v0zM506 727q-15 0 -25 10t-10 25q0 8 4 15v0q1 4 4 7l1 1q1 2 3 3l2 1q1 2 2 2q2 2 5 3l1 0.5l1 0.5q2 0 4 1h0.5h1.5q3 1 6 1v0q3 0 6 -1h1.5h0.5q2 -1 4 -1.5l2 -0.5
q3 -1 5 -3q1 0 2 -2l2 -1l3 -3l1 -1q3 -3 4 -7v0q4 -7 4 -15q0 -15 -10 -25t-25 -10v0z" />
    <glyph glyph-name="filter1" unicode="&#xe601;" 
d="M608 37q-9 0 -9 9v362l3 7l202 208q21 41 8 65q-11 21 -43 25h-505q-39 0 -51 -19q-15 -23 3 -64l209 -215l3 -7v-230q0 -9 -9 -9t-9 9v227l-208 213l-2 3q-1 2 -2.5 6t-4.5 14t-4 19.5t1 21.5t7 21q18 28 67 28h507q5 0 12.5 -1.5t22.5 -10.5t22 -23q18 -32 -8 -82
l-2 -3l-201 -206v-359q0 -9 -9 -9v0z" />
    <glyph glyph-name="goutong" unicode="&#xe660;" 
d="M833 2q-88 0 -195 77q-49 34 -82.5 74.5t-47.5 76.5t-19 59t-5 41q0 95 64.5 159.5t159 64.5t159 -64.5t64.5 -159.5q0 -56 -28.5 -106t-76.5 -82q7 -28 49 -91q5 -5 5 -13.5t-5 -14.5q-14 -14 -21 -14q-14 -7 -21 -7v0zM700 491q-68 0 -117.5 -49.5t-49.5 -118.5
q0 -15 3.5 -33t14.5 -48t38.5 -62t69.5 -59q62 -42 125 -63q-28 42 -28 63q-5 19 2 34.5t19 21.5v0q37 21 60.5 59.5t23.5 79.5q5 73 -43 124t-118 51v0zM219 -5q-12 0 -20 5.5t-8 15.5q-13 25 7 35q25 32 47.5 69.5t22.5 56.5q0 5 -1 6t-6 1q-78 42 -123 115t-45 157
q0 86 43.5 158.5t117.5 114t160 41.5q74 0 139.5 -30.5t112.5 -87.5q9 -12 6.5 -25t-13.5 -24q-12 -10 -25 -7.5t-24 14.5q-38 42 -88.5 66t-107.5 24q-104 0 -177.5 -72t-73.5 -172q0 -67 33.5 -123t92.5 -93q35 -26 35 -70q0 -35 -42 -105q62 9 132 49q11 5 24.5 1
t24.5 -15q5 -11 1 -24.5t-15 -24.5q-59 -32 -106 -44t-124 -12v0z" />
    <glyph glyph-name="yuan" unicode="&#xe608;" 
d="M512 384zM233 384q0 116 81.5 197.5t197.5 81.5t197.5 -81.5t81.5 -197.5t-81.5 -197.5t-197.5 -81.5t-197.5 81.5t-81.5 197.5z" />
    <glyph glyph-name="zhangdan" unicode="&#xe661;" 
d="M272 168q-16 0 -27.5 -11t-11.5 -27.5t11.5 -28t27.5 -11.5h143q-4 26 -4 53q0 13 1 25h-140v0zM531 403h-259q-16 0 -27.5 -11.5t-11.5 -27.5t11.5 -27.5t27.5 -11.5h191q28 44 68 78v0zM766 778h39q32 0 55 -23t23 -55v-244q42 -18 78 -46v290q0 65 -45.5 110.5
t-110.5 45.5h-39q-16 0 -27 -11.5t-11 -27.5t11 -27.5t27 -11.5v0zM381 778h194q24 0 41 17t17 41.5t-17 41.5t-41 17h-194q-24 0 -41 -17t-17 -41.5t17 -41.5t41 -17v0zM456 -27h-300q-33 0 -55.5 22.5t-22.5 55.5v649q0 32 22.5 55t55.5 23h38q16 0 27.5 11.5t11.5 27.5
t-11.5 27.5t-27.5 11.5h-38q-65 0 -110.5 -45.5t-45.5 -110.5v-649q0 -65 45.5 -110.5t110.5 -45.5h361q-36 34 -61 78v0zM272 558h417q16 0 27.5 11.5t11.5 28t-11.5 27.5t-27.5 11h-417q-16 0 -27.5 -11.5t-11.5 -27.5t11.5 -27.5t27.5 -11.5v0zM750 413
q-112 0 -190.5 -79t-78.5 -191t78.5 -191.5t190 -79.5t190.5 79.5t79 191.5t-79 191t-190 79v0zM926 160q0 -6 -4 -10t-10 -4v0h-139v-59h139q6 0 10 -4t4 -10v-25q0 -6 -4 -10.5t-10 -4.5h-141v-53q0 -6 -4 -10t-10 -4h-26q-6 0 -10 4t-4 10v53h-129q-6 0 -10 4.5t-4 10.5
v25q0 6 4 10t10 4h129v59h-129q-6 0 -10 4t-4 10v25q0 6 4 10t10 4h87l-48 78q-5 6 -3 17t12 17q10 4 17.5 3.5t12.5 -3.5l5 -3l72 -109h4l68 109q5 9 16.5 11t23.5 -6q8 -6 10 -14t0 -13l-3 -5l-49 -82h99q6 0 10 -4t4 -10v-25v0z" />
    <glyph glyph-name="goutongpeixun" unicode="&#xe762;" 
d="M87 399l48 -25q3 -2 7 -3.5t13 1t14 13.5l121 252q11 21 -7 32l-53 25q-17 10 -28 -10q0 -3 -31 -67.5t-61.5 -127l-30.5 -62.5q-8 -20 8 -28v0zM882 373l50 23q1 0 2.5 1t5 4t5 6.5t2.5 9.5t-3 12l-124 251q-1 2 -3 5t-10 8.5t-16 0.5l-53 -26q-2 -1 -4.5 -2.5
t-6.5 -8.5t2 -17q2 -2 33.5 -66t62 -127l30.5 -63q1 -2 3 -4.5t9.5 -7t14.5 0.5v0zM205 374l16 35l58 -73q4 1 10.5 1.5t20.5 -3t19 -13.5q2 -2 3.5 -5t4.5 -13.5t-1 -22.5q8 -6 9 -9q26 6 41 -12q2 -2 4 -4.5t5.5 -11t3.5 -18.5q10 -4 12 -10q25 6 38 -9q1 -2 3.5 -4.5
t6.5 -10.5t4 -15l23 -18q22 -1 26 -19l21 -15q1 -1 3.5 -1.5t8.5 -1t10.5 1t8.5 7t4 14.5l-79 61q0 1 -0.5 2.5t-0.5 5.5t1.5 6.5t6.5 4.5t13 1l118 -83q19 -8 31 10q11 16 -5 33l-125 91q-1 1 -1.5 2.5t-1 6t1 7.5t6 5.5t12.5 1.5l149 -105q21 -9 30 7q12 16 0 32l-164 120
q-1 1 -1 3t-0.5 7t1.5 7.5t6.5 5t14.5 -1.5l169 -120q26 -8 37 12q15 23 -5 42l-240 209q-1 1 -4.5 2t-12.5 2.5t-17.5 0t-18.5 -8.5t-18 -19q0 -3 -1 -8t-6 -18.5t-13 -24t-25.5 -21.5t-39.5 -14q-3 0 -6 0.5t-12.5 3t-14.5 7t-10 12t0 17.5l5 7.5t7 22t3 37.5q2 32 24 59
h-86l19 40h131l16 8t35 13t43 6q52 -3 66 -11q8 -2 20.5 -5.5t40 -8.5t41.5 -3l116 -242l-18 -42q1 -2 3.5 -4.5t7 -11t6.5 -17t0.5 -21t-8.5 -24.5q-14 -27 -55 -29q5 -29 -16 -45q-1 -3 -5 -6t-17 -7.5t-30 -1.5q2 -26 -22 -43q-3 -2 -9 -5.5t-25.5 -3t-39.5 14.5
q-1 -3 -3 -8t-13 -14.5t-27 -12.5q-26 -4 -41 11q-1 -2 -3 -5.5t-9 -10.5t-14.5 -11t-18.5 -4t-21 9q-1 0 -3 1.5t-5 7t-4.5 10.5t-1 13.5t5.5 16.5q-1 -2 -3.5 -5.5t-10.5 -10.5t-16 -10t-19.5 -0.5t-22.5 13.5q-1 1 -2.5 2t-4 6t-3.5 10t0.5 14t7.5 19q-1 -2 -3.5 -4
t-10 -6.5t-14.5 -6t-17.5 1t-20.5 11.5l-2.5 2.5t-4.5 7t-4.5 11t0 15t6.5 19.5l-3.5 -3.5t-10 -7t-15 -6t-19 1.5t-21.5 14q-2 1 -4 4.5t-5 15.5t2 26l37 49l-49 63v0z" />
    <glyph glyph-name="tixing" unicode="&#xe657;" 
d="M905 637v56q0 35 -24.5 59.5t-59.5 24.5h-56v56h56q58 0 99 -41t41 -99v-56h-56zM905 384q0 -110 -56 -202t-149 -143l93 -104h-84l-76 75q-59 -19 -121 -19t-121 19l-76 -75h-84l93 104q-93 51 -149 143t-56 202q0 107 52.5 197.5t143 143t197.5 52.5t197.5 -52.5
t143 -143t52.5 -197.5zM512 721q-92 0 -169.5 -45t-122.5 -122.5t-45 -169.5t45 -169.5t122.5 -122.5t169.5 -45t169.5 45t122.5 122.5t45 169.5t-45 169.5t-122.5 122.5t-169.5 45zM709 356h-197q-12 0 -20 8t-8 20v225q0 11 8 19.5t20 8.5t20 -8.5t8 -19.5v-197h169
q11 0 19.5 -8t8.5 -20t-8.5 -20t-19.5 -8zM203 777q-35 0 -59.5 -24.5t-24.5 -59.5v-56h-56v56q0 58 41 99t99 41h56v-56h-56z" />
    <glyph glyph-name="kehu" unicode="&#xe920;" 
d="M513.5 848q99.5 0 170 -71t70.5 -170.5t-70.5 -170t-170 -70.5t-170 70.5t-70.5 170t70.5 170.5t170 71zM513 892q-118 0 -201.5 -83.5t-83.5 -201.5t83.5 -201.5t201.5 -83.5t201.5 83.5t83.5 201.5t-83.5 201.5t-201.5 83.5zM513 322q118 0 220 -53t166 -145t75 -202
h-922q12 111 77 202.5t166 143.5h-1q11 7 11 19q0 9 -6.5 15.5t-15.5 6.5q-5 0 -10 -3v0q-121 -63 -194 -177t-73 -251h1014q0 99 -40 189t-108 155t-162 103.5t-197 38.5v-42zM520 -50l-94 88l34 195h115l26 -196zM464 56l54 -52l48 50l-18 143h-63z" />
    <glyph glyph-name="peixun1" unicode="&#xe6c8;" 
d="M909 347q0 -22 17 -35l7 -6q7 -5 7.5 -13.5t-5.5 -14.5l-24 -23q-7 -6 -16.5 -6.5t-15.5 5.5l-27 23q-7 5 -7 13t7 14l10 7q17 13 17 35v100q0 9 -6 13.5t-14 0.5l-328 -128q-20 -8 -40 0l-419 171q-8 3 -8 8t8 8l423 178q20 8 40 0l416 -174q8 -4 8.5 -9.5t-7.5 -9.5
l-24 -13q-8 -4 -13.5 -13.5t-5.5 -17.5v-113v0zM746 393q8 4 14 0t6 -13v-191q0 -21 -15 -37q-3 -3 -9 -8.5t-27.5 -20t-46.5 -25t-66 -19.5t-86 -9q-48 0 -92 9t-70 19.5t-49.5 25t-29 19.5t-9.5 9q-15 16 -15 37v193q0 9 6 13t14 1l222 -89q20 -8 40 0l213 86v0zM746 393z
" />
  </font>
</defs>
</svg>
